<?xml version="1.0" encoding="utf-8"?>
<svg width="16px" height="16px" viewBox="0 0 16 16" version="1.1" xmlns:xlink="http://www.w3.org/1999/xlink" xmlns="http://www.w3.org/2000/svg">
  <path d="M3 0L13 0C14.6569 0 16 1.34315 16 3L16 13C16 14.6569 14.6569 16 13 16L3 16C1.34315 16 0 14.6569 0 13L0 3L0 3C0 1.34315 1.34315 0 3 0L3 0ZM11 10.4615L12.5556 10.4615L13 8.38461L11 8.38461L11 7C10.8945 6.41341 11.0596 5.99253 11.8889 6.07692L13 6.07692L13 4C12.8118 4.0581 12.1663 4 11.4444 4C9.84705 4 8.7735 4.99412 8.77778 6.76923L8.77778 8.38461L7 8.38461L7 10.4615L8.77778 10.4615L8.77778 16L11 16L11 10.4615Z" id="Shape" fill="#000000" fill-rule="evenodd" stroke="none" />
</svg>