<?xml version="1.0" encoding="utf-8"?>
<svg width="22px" height="16px" viewBox="0 0 22 16" version="1.1" xmlns:xlink="http://www.w3.org/1999/xlink" xmlns="http://www.w3.org/2000/svg">
  <path d="M8.55556 11.4294L8.55556 4.57175L14.6667 8.012L8.55556 11.4294ZM21.78 3.45168C21.78 3.45168 21.5649 1.88356 20.9061 1.19323C20.0689 0.286878 19.1314 0.283449 18.7012 0.230874C15.6237 0 11.0061 0 11.0061 0L10.9963 0C10.9963 0 6.37756 0 3.3 0.230874C2.86856 0.283449 1.93111 0.288021 1.09389 1.19323C0.433889 1.88356 0.22 3.45168 0.22 3.45168C0.22 3.45168 0 5.29181 0 7.13194L0 8.86006C0 10.7002 0.22 12.5403 0.22 12.5403C0.22 12.5403 0.433889 14.1096 1.09389 14.7999C1.93111 15.7051 3.02989 15.6765 3.52 15.7714C5.28 15.9463 11 16 11 16C11 16 15.6224 15.9931 18.7 15.7623C19.1314 15.7097 20.0689 15.7051 20.9061 14.7988C21.5661 14.1073 21.78 12.5392 21.78 12.5392C21.78 12.5392 22 10.699 22 8.85892L22 7.13194C22 5.29181 21.78 3.45168 21.78 3.45168Z" id="Shape" fill="#000000" fill-rule="evenodd" stroke="none" />
</svg>