<?xml version="1.0" encoding="utf-8"?>
<svg width="20px" height="17px" viewBox="0 0 20 17" version="1.1" xmlns:xlink="http://www.w3.org/1999/xlink" xmlns="http://www.w3.org/2000/svg">
  <g id="chat">
    <g id="Desktop-HD-Custom-Copy-30">
      <g id="Group-23">
        <g id="Group-25">
          <g id="Group-21">
            <g id="Group-20">
              <path d="M10.4298 8.19905C9.4514 7.03088 9.6886 5.4423 9.92116 4.58426C10.1402 4.04876 10.2635 3.4788 10.2635 2.88288C10.2635 1.81854 9.88419 0.829324 9.23698 0C8.60674 3.87026 4.72256 6.86708 0 6.94082C1.08488 7.6948 2.47628 8.1492 3.99395 8.1492C5.10349 8.1492 6.14209 7.905 7.04488 7.48069C8.4307 8.39915 10.1563 8.52527 10.1563 8.52527C10.9023 8.52481 10.4298 8.19905 10.4298 8.19905Z" transform="translate(9.246744 8.434986)" id="Shape" fill="#540CFA" fill-rule="evenodd" stroke="none" />
              <path d="M17.5907 7.25073C17.5907 3.2532 13.6863 0 8.88814 0C4.0893 0 0.185349 3.2532 0.185349 7.25073C0.185349 8.03181 0.34186 8.81381 0.651163 9.57238C1.01023 10.8791 1.36558 13.2251 0 15.0395C0.463721 14.9903 2.54744 14.7135 4.2314 13.5989L4.42279 13.4725L4.6307 13.5697C5.92791 14.1787 7.4 14.5017 8.88814 14.5017C13.6863 14.5017 17.5907 11.2483 17.5907 7.25073Z" transform="translate(0.1827907 0.082932435)" id="Shape" fill="#540CFA" fill-rule="evenodd" stroke="none" />
            </g>
          </g>
        </g>
      </g>
    </g>
  </g>
</svg>