<?xml version="1.0" encoding="utf-8"?>
<svg width="50px" height="50px" viewBox="0 0 50 50" version="1.1" xmlns:xlink="http://www.w3.org/1999/xlink" xmlns="http://www.w3.org/2000/svg">
  <defs>
    <linearGradient x1="0" y1="0" x2="1" y2="1" id="gradient_1">
      <stop offset="0" stop-color="#F2C314" />
      <stop offset="1" stop-color="#FC3832" />
    </linearGradient>
    <filter filterUnits="userSpaceOnUse" color-interpolation-filters="sRGB" id="filter_1">
      <feFlood flood-opacity="0" result="BackgroundImageFix" />
      <feColorMatrix in="SourceAlpha" type="matrix" values="0 0 0 0 0 0 0 0 0 0 0 0 0 0 0 0 0 0 127 0" />
      <feOffset dx="0" dy="2" />
      <feGaussianBlur stdDeviation="2" />
      <feColorMatrix type="matrix" values="0 0 0 0 0.5019608 0 0 0 0 0.1254902 0 0 0 0 0 0 0 0 0.14901961 0" />
      <feBlend mode="normal" in2="BackgroundImageFix" result="effect0_dropShadow" />
      <feBlend mode="normal" in="SourceGraphic" in2="effect0_dropShadow" result="shape" />
    </filter>
  </defs>
  <g id="Group-8">
    <path d="M25 0C25 -2.18557e-06 25 -2.18557e-06 25 -2.18557e-06C26.7266 0.00487754 28.4533 0.000984931 30.1799 0.014637C36.2559 0.0626798 43.9459 0.27472 47.4855 6.13374C48.0506 7.0692 48.4801 8.08186 48.8056 9.12382C49.4866 11.3043 49.7419 13.6017 49.8681 15.8739C50.0369 18.911 49.9914 21.9611 50 25C50 25 50 25 50 25C49.9951 26.7266 49.999 28.4533 49.9854 30.1799C49.9373 36.2559 49.7253 43.9459 43.8663 47.4855C42.9308 48.0506 41.9181 48.4801 40.8762 48.8055C38.6957 49.4866 36.3983 49.7419 34.1261 49.8681C31.0889 50.0369 28.0389 49.9914 25 50C25 50 25 50 25 50C23.2734 49.9951 21.5467 49.999 19.8201 49.9854C13.7441 49.9373 6.05412 49.7253 2.51452 43.8663C1.94938 42.9308 1.5199 41.9181 1.19445 40.8762C0.513381 38.6957 0.258128 36.3983 0.131861 34.1261C-0.0369144 31.0889 0.00858917 28.0389 -1.09278e-06 25C-1.09278e-06 25 -1.09278e-06 25 -1.09278e-06 25C0.00487827 23.2734 0.000985151 21.5467 0.014637 19.8201C0.0626788 13.7441 0.274733 6.05412 6.13374 2.51452C7.06921 1.94938 8.08187 1.5199 9.12383 1.19444C11.3043 0.513375 13.6017 0.258126 15.8739 0.131859C18.9111 -0.0369148 21.9611 0.0085895 25 0Z" id="Rectangle-9" fill="url(#gradient_1)" fill-rule="evenodd" stroke="none" filter="url(#filter_1)" />
    <g id="machine-learning" transform="translate(14 12)">
      <path d="M10.5545 21.4182L10.5545 18.737C9.45412 18.5342 8.62208 17.5948 8.62208 16.4665C8.62208 15.9989 8.76499 15.5637 9.01069 15.2L6.68964 13.5381L4.36859 15.2C4.6143 15.5637 4.75721 15.9989 4.75721 16.4665C4.75721 16.9375 4.61223 17.3755 4.36328 17.7408L9.64272 21.7909C9.91145 21.6091 10.2206 21.4797 10.5545 21.4182ZM11.4453 21.4182C11.7792 21.4797 12.0884 21.6091 12.3571 21.7909L17.6365 17.7408C17.3876 17.3755 17.2426 16.9375 17.2426 16.4665C17.2426 15.9989 17.3855 15.5637 17.6312 15.2L15.3102 13.5381L12.9891 15.2C13.2348 15.5637 13.3777 15.9989 13.3777 16.4665C13.3777 17.5948 12.5457 18.5342 11.4453 18.737L11.4453 21.4182ZM12.9844 22.4145C13.2334 22.7799 13.3784 23.2179 13.3784 23.6889C13.3784 24.9653 12.3135 26 11 26C9.68646 26 8.62162 24.9653 8.62162 23.6889C8.62162 23.2179 8.7666 22.7799 9.01555 22.4145L3.73611 18.3644C3.35113 18.625 2.88311 18.7778 2.37838 18.7778C1.06484 18.7778 0 17.7431 0 16.4667C0 15.3384 0.832049 14.3989 1.93243 14.1961L1.93243 11.8039C0.832049 11.6011 0 10.6616 0 9.53333C0 8.25694 1.06484 7.22222 2.37838 7.22222C2.88311 7.22222 3.35113 7.375 3.73611 7.63556L9.01555 3.58546C8.7666 3.22014 8.62162 2.78208 8.62162 2.31111C8.62162 1.03472 9.68646 0 11 0C12.3135 0 13.3784 1.03472 13.3784 2.31111C13.3784 2.78208 13.2334 3.22014 12.9844 3.58546L18.2639 7.63556C18.6489 7.375 19.1169 7.22222 19.6216 7.22222C20.9352 7.22222 22 8.25694 22 9.53333C22 10.6616 21.168 11.6011 20.0676 11.8039L20.0676 14.1961C21.168 14.3989 22 15.3384 22 16.4667C22 17.7431 20.9352 18.7778 19.6216 18.7778C19.1169 18.7778 18.6489 18.625 18.2639 18.3644L12.9844 22.4145ZM3.7412 14.5726L5.93732 13.0002L3.7412 11.4277C3.47127 11.6115 3.16026 11.7421 2.82422 11.804L2.82422 14.1963C3.16026 14.2582 3.47127 14.3888 3.7412 14.5726ZM4.36859 10.8L6.68964 12.4618L9.01069 10.8C8.76499 10.4362 8.62208 10.001 8.62208 9.53344C8.62208 8.40516 9.45412 7.46571 10.5545 7.26288L10.5545 4.58176C10.2206 4.52022 9.91145 4.39086 9.64272 4.20898L4.36328 8.25908C4.61223 8.6244 4.75721 9.06247 4.75721 9.53344C4.75721 10.001 4.6143 10.4362 4.36859 10.8ZM18.2586 14.5726C18.5285 14.3888 18.8396 14.2582 19.1756 14.1963L19.1756 11.804C18.8396 11.7421 18.5285 11.6115 18.2586 11.4277L16.0625 13.0002L18.2586 14.5726ZM17.6365 8.25908L12.3571 4.20898C12.0884 4.39086 11.7792 4.52022 11.4453 4.58176L11.4453 7.26288C12.5457 7.46571 13.3777 8.40516 13.3777 9.53344C13.3777 10.001 13.2348 10.4362 12.9891 10.8L15.3102 12.4618L17.6312 10.8C17.3855 10.4362 17.2426 10.001 17.2426 9.53344C17.2426 9.06247 17.3876 8.6244 17.6365 8.25908ZM9.63752 14.5726C10.0235 14.3099 10.4934 14.1557 11.0005 14.1557C11.5075 14.1557 11.9774 14.3099 12.3634 14.5726L14.5595 13.0002L12.3634 11.4277C11.9774 11.6904 11.5075 11.8446 11.0005 11.8446C10.4934 11.8446 10.0235 11.6904 9.63752 11.4277L7.44141 13.0002L9.63752 14.5726ZM10.9982 10.9778C11.8192 10.9778 12.4847 10.3311 12.4847 9.53331C12.4847 8.73557 11.8192 8.08887 10.9982 8.08887C10.1772 8.08887 9.51172 8.73557 9.51172 9.53331C9.51172 10.3311 10.1772 10.9778 10.9982 10.9778ZM10.9982 17.9114C11.8192 17.9114 12.4847 17.2647 12.4847 16.4669C12.4847 15.6692 11.8192 15.0225 10.9982 15.0225C10.1772 15.0225 9.51172 15.6692 9.51172 16.4669C9.51172 17.2647 10.1772 17.9114 10.9982 17.9114ZM19.6232 10.9778C20.4442 10.9778 21.1097 10.3311 21.1097 9.53331C21.1097 8.73557 20.4442 8.08887 19.6232 8.08887C18.8022 8.08887 18.1367 8.73557 18.1367 9.53331C18.1367 10.3311 18.8022 10.9778 19.6232 10.9778ZM19.6232 17.9114C20.4442 17.9114 21.1097 17.2647 21.1097 16.4669C21.1097 15.6692 20.4442 15.0225 19.6232 15.0225C18.8022 15.0225 18.1367 15.6692 18.1367 16.4669C18.1367 17.2647 18.8022 17.9114 19.6232 17.9114ZM2.37711 10.9778C3.19808 10.9778 3.8636 10.3311 3.8636 9.53331C3.8636 8.73557 3.19808 8.08887 2.37711 8.08887C1.55615 8.08887 0.890625 8.73557 0.890625 9.53331C0.890625 10.3311 1.55615 10.9778 2.37711 10.9778ZM2.37711 17.9114C3.19808 17.9114 3.8636 17.2647 3.8636 16.4669C3.8636 15.6692 3.19808 15.0225 2.37711 15.0225C1.55615 15.0225 0.890625 15.6692 0.890625 16.4669C0.890625 17.2647 1.55615 17.9114 2.37711 17.9114ZM10.9982 25.133C11.8192 25.133 12.4847 24.4863 12.4847 23.6886C12.4847 22.8908 11.8192 22.2441 10.9982 22.2441C10.1772 22.2441 9.51172 22.8908 9.51172 23.6886C9.51172 24.4863 10.1772 25.133 10.9982 25.133ZM10.9982 3.7551C11.8192 3.7551 12.4847 3.1084 12.4847 2.31066C12.4847 1.51291 11.8192 0.866211 10.9982 0.866211C10.1772 0.866211 9.51172 1.51291 9.51172 2.31066C9.51172 3.1084 10.1772 3.7551 10.9982 3.7551Z" id="Shape" fill="#FFFFFF" stroke="none" />
    </g>
  </g>
</svg>